<?xml version="1.0" encoding="iso-8859-1"?>
<!-- Uploaded to: SVG Repo, www.svgrepo.com, Generator: SVG Repo Mixer Tools -->
<svg fill="#000000" height="800px" width="800px" version="1.1" id="Layer_1" xmlns="http://www.w3.org/2000/svg" xmlns:xlink="http://www.w3.org/1999/xlink" 
	 viewBox="0 0 512 512" xml:space="preserve">
<g>
	<g>
		<path d="M476,92H36c-19.884,0-36,16.116-36,36v256c0,19.884,16.116,36,36,36h440c19.884,0,36-16.116,36-36V128
			C512,108.116,495.884,92,476,92z M188.688,135.608c29.78,0,54,24.228,54,54c0,29.764-24.22,53.984-54,53.984
			c-29.764,0-53.992-24.22-53.992-53.984C134.696,159.836,158.92,135.608,188.688,135.608z M155.016,371.752
			c-4.272,0-8.288-1.664-11.312-4.688c-3.024-3.024-4.688-7.04-4.688-11.312c0-4.272,1.664-8.296,4.688-11.312L343.94,144.196
			c6.048-6.048,16.58-6.048,22.624,0c3.024,3.024,4.688,7.04,4.688,11.312c0,4.272-1.664,8.296-4.688,11.312L166.328,367.064
			C163.304,370.084,159.288,371.752,155.016,371.752z M320.828,375.736c-29.772,0-53.992-24.22-53.992-53.984
			c0-29.78,24.22-54,53.992-54c29.772,0,54,24.22,54,54C374.828,351.516,350.6,375.736,320.828,375.736z"/>
	</g>
</g>
<g>
	<g>
		<path d="M320.828,299.728c-12.14,0-22.016,9.876-22.016,22.016c0,12.14,9.876,22.016,22.016,22.016
			c12.14,0,22.016-9.876,22.016-22.016C342.844,309.604,332.968,299.728,320.828,299.728z"/>
	</g>
</g>
<g>
	<g>
		<path d="M188.696,167.584c-12.14,0-22.016,9.884-22.016,22.024c0,12.136,9.876,22.008,22.016,22.008
			c12.14,0,22.016-9.876,22.016-22.008C210.712,177.468,200.836,167.584,188.696,167.584z"/>
	</g>
</g>
</svg>